<svg width="40" height="34" viewBox="0 0 40 34" fill="none" xmlns="http://www.w3.org/2000/svg">
<path d="M26.2712 14.3421C26.3593 14.2623 26.4474 14.1842 26.5339 14.1061C26.7084 13.9515 26.878 13.7936 27.0442 13.6373C27.2054 13.4711 27.3966 13.3614 27.5645 13.2201C27.7373 13.0855 27.9036 12.9458 28.0731 12.8212C28.4238 12.5968 28.7496 12.3491 29.0804 12.1596C29.4112 11.9751 29.7187 11.7723 30.0246 11.6343C30.1759 11.5562 30.3205 11.4814 30.4584 11.4099C30.6014 11.3467 30.7377 11.2852 30.8673 11.2287C31.3876 10.9877 31.8181 10.8414 32.114 10.7334C32.4116 10.637 32.5711 10.5871 32.5711 10.5871L32.5861 10.5821C32.6393 10.5655 32.6842 10.5223 32.7024 10.4657C32.7324 10.371 32.6792 10.2696 32.5861 10.2397C32.5861 10.2397 32.4066 10.1832 32.0774 10.1233C31.9129 10.0967 31.7051 10.0568 31.4641 10.0419C31.2214 10.0219 30.9388 9.99201 30.6246 10.002C30.4667 10.0036 30.2988 10.0003 30.1243 10.0103C29.9498 10.0253 29.7669 10.0419 29.5774 10.0602C29.1918 10.0868 28.7878 10.1749 28.3474 10.2646C28.123 10.3012 27.9052 10.371 27.6775 10.4408C27.4481 10.5123 27.212 10.5854 26.971 10.6602C26.5089 10.8547 26.0036 11.0475 25.5116 11.3101C25.2689 11.4464 25.0196 11.5877 24.7686 11.739C24.6422 11.8138 24.5159 11.8903 24.3879 11.9667C24.2682 12.0548 24.1469 12.1429 24.0255 12.231C23.7845 12.4155 23.5385 12.6017 23.2875 12.7912C23.0282 12.974 22.822 13.2117 22.5844 13.4295C22.3533 13.6555 22.1189 13.8833 21.8829 14.1143C21.6718 14.3653 21.4607 14.6213 21.2529 14.8856C21.0485 15.1516 20.8258 15.4142 20.6363 15.6968C20.4551 15.9843 20.2839 16.2819 20.106 16.5794C19.9381 16.8836 19.7503 17.1745 19.6007 17.4969C19.4544 17.8261 19.3181 18.1618 19.1801 18.4993C19.0422 18.835 18.9042 19.1741 18.7762 19.5149C18.6881 19.8307 18.5984 20.1499 18.5086 20.469C18.4188 20.7882 18.3291 21.109 18.2393 21.4298L18.0881 21.9584L17.97 22.3955C17.9285 22.5418 17.8952 22.6897 17.8487 22.8343L17.6908 23.2582L17.5329 23.6854C17.478 23.8267 17.4082 23.9597 17.3467 24.0993C16.8414 25.2013 16.1732 26.2286 15.372 27.1362C14.5691 28.0421 13.6566 28.8449 12.6792 29.5165C11.7034 30.193 10.6712 30.7366 9.65721 31.1937C8.63993 31.6475 7.63593 31.9999 6.6901 32.2758C4.79683 32.8327 3.14789 33.0887 1.99436 33.2383C0.835763 33.3829 0.170869 33.3929 0.170869 33.3929C0.0860947 33.3945 0.0129586 33.4577 0.00132026 33.5441C-0.0103151 33.6389 0.0561756 33.727 0.152584 33.7386H0.155908C0.155908 33.7386 0.835781 33.825 2.02591 33.85C2.62097 33.8633 3.34574 33.8566 4.1785 33.8051C5.00961 33.7536 5.95046 33.6704 6.9694 33.4992C9.00063 33.1568 11.3911 32.5368 13.7447 31.2569C14.9182 30.6203 16.0818 29.8207 17.1191 28.8234C18.1596 27.8343 19.0822 26.6641 19.8135 25.3792C19.9049 25.218 20.0047 25.0617 20.0895 24.8972L20.3338 24.4018C20.4984 24.071 20.6579 23.7369 20.7909 23.3961L21.0004 22.8858L21.0519 22.7578L21.0785 22.6947L21.0851 22.6781C21.1067 22.6132 21.0619 22.7479 21.0685 22.7296L21.0801 22.7013L21.1782 22.4703C21.3112 22.1644 21.4425 21.8586 21.5738 21.5544C21.7051 21.2502 21.8365 20.9477 21.9678 20.6452C22.1157 20.3925 22.252 20.1398 22.3867 19.8889C22.5213 19.6379 22.6576 19.3902 22.7789 19.1375C22.9169 18.8899 23.0815 18.6505 23.2261 18.4078C23.3707 18.1635 23.5153 17.9225 23.65 17.6781C23.7996 17.4454 23.9641 17.2293 24.1137 17.005C24.27 16.7839 24.4096 16.5545 24.5609 16.3367C24.7254 16.1323 24.8867 15.9295 25.0462 15.73C25.126 15.6286 25.2041 15.5289 25.2839 15.4292C25.3604 15.3261 25.4385 15.2264 25.5266 15.1416C25.6978 14.9604 25.8657 14.7825 26.0319 14.6064C26.11 14.5199 26.1915 14.4302 26.2712 14.3421Z" fill="#4AF6CD"/>
<path fill-rule="evenodd" clip-rule="evenodd" d="M38.8297 21.451C39.4663 21.7352 39.837 21.8732 39.837 21.8732L39.8371 21.8732C39.9003 21.8964 39.9335 21.9663 39.9086 22.0261C39.887 22.081 39.8288 22.1125 39.7706 22.1026C39.7706 22.1026 39.3733 22.0261 38.6901 21.8516C38.0053 21.6803 37.0395 21.3861 35.8992 20.9589C35.809 20.9233 35.7172 20.8878 35.6241 20.8517C35.4259 20.7749 35.222 20.6958 35.0149 20.6099C34.8727 20.5473 34.7283 20.4845 34.5819 20.4207C34.4168 20.3488 34.2491 20.2758 34.0791 20.2009C33.9574 20.1407 33.8341 20.08 33.7097 20.0187C33.5113 19.9209 33.3099 19.8217 33.1067 19.7206C32.8637 19.5847 32.617 19.4461 32.3665 19.3054C32.2829 19.2584 32.1988 19.2111 32.1143 19.1637C32.0087 19.0965 31.9026 19.0289 31.7962 18.961C31.571 18.8175 31.3439 18.6727 31.1137 18.5271C30.8778 18.3603 30.6454 18.1842 30.4103 18.006C30.3173 17.9355 30.2239 17.8647 30.1296 17.794C29.9626 17.6482 29.7951 17.5009 29.6271 17.3533C29.4791 17.2233 29.3308 17.0929 29.1821 16.9629C29.0935 16.8692 29.0041 16.7757 28.9145 16.682C28.7082 16.4662 28.5006 16.249 28.2978 16.0254L27.8939 15.5085L27.6928 15.2492L27.5897 15.1195L27.5648 15.0879L27.5515 15.0713C27.5492 15.0672 27.5484 15.0659 27.5485 15.066C27.5486 15.0662 27.5663 15.0974 27.5182 15.0165L27.5133 15.0081L27.4717 14.945L27.1459 14.4446C27.1126 14.3908 27.0789 14.3411 27.0453 14.2913C26.9698 14.1798 26.8942 14.068 26.8218 13.9094C26.7727 13.8075 26.7208 13.7055 26.6687 13.6031C26.5076 13.2861 26.345 12.9661 26.2583 12.6394C26.244 12.5957 26.2296 12.552 26.2151 12.5083C26.1588 12.338 26.1025 12.1678 26.0588 11.9945C26.0434 11.8993 26.0283 11.8044 26.0132 11.7097C25.9925 11.5797 25.9719 11.4502 25.9508 11.3213C25.9462 11.2773 25.9405 11.2339 25.9347 11.1905C25.9256 11.1224 25.9166 11.0546 25.9125 10.9855L25.9159 10.6431C25.9187 10.5783 25.9202 10.5138 25.9217 10.4495C25.9254 10.2878 25.9291 10.1276 25.9541 9.96828C25.9823 9.7954 26.0183 9.6255 26.0539 9.45781C26.0645 9.4078 26.0751 9.35799 26.0854 9.30836C26.1109 9.16423 26.1675 9.02454 26.223 8.88732C26.2508 8.8188 26.2782 8.75088 26.3015 8.68334L26.4212 8.38414C26.4499 8.32015 26.4873 8.25835 26.5244 8.19729C26.5431 8.16636 26.5618 8.13562 26.5791 8.10488C26.6132 8.05014 26.646 7.99525 26.6785 7.94081C26.7537 7.81503 26.8274 7.69163 26.9132 7.57795C26.924 7.56533 26.9347 7.55273 26.9454 7.54015C27.2011 7.23977 27.4443 6.95406 27.7426 6.74186C27.9589 6.54627 28.2106 6.41327 28.448 6.28778C28.5153 6.25223 28.5814 6.21729 28.6452 6.18169C28.7579 6.13147 28.8733 6.09299 28.9854 6.05559C29.0255 6.04224 29.0651 6.02903 29.104 6.01547C29.1189 6.01044 29.1338 6.0054 29.1485 6.00038C29.2802 5.95558 29.4066 5.91257 29.5412 5.89911C30.1129 5.78442 30.6183 5.816 31.0056 5.89413C31.2017 5.93568 31.3696 5.98223 31.5126 6.02378C31.6539 6.08528 31.7702 6.13848 31.8616 6.18502C32.0445 6.27645 32.1359 6.32797 32.1359 6.32797C32.1957 6.36288 32.2157 6.43934 32.1808 6.49918C32.1608 6.53409 32.1276 6.5557 32.091 6.56068L32.0744 6.56401C32.0744 6.56401 31.973 6.57897 31.7835 6.60723C31.7084 6.62088 31.6198 6.63117 31.5205 6.64271C31.499 6.64521 31.4769 6.64777 31.4544 6.65044C31.4119 6.66217 31.3674 6.67521 31.3213 6.68874C31.23 6.71549 31.1321 6.74418 31.0305 6.76846C30.9245 6.78556 30.8154 6.83626 30.7031 6.88842C30.6517 6.91232 30.5996 6.93653 30.5468 6.95795C30.4313 6.99349 30.321 7.06315 30.2085 7.13422C30.1526 7.16954 30.0961 7.2052 30.0382 7.23721C29.9216 7.30668 29.8127 7.39956 29.7031 7.49295C29.6501 7.5381 29.597 7.58337 29.5428 7.62617C29.4938 7.68484 29.4415 7.73961 29.3892 7.79442C29.2888 7.89954 29.1882 8.00483 29.1106 8.13813C28.8347 8.49885 28.6452 8.95098 28.5388 9.44132C28.5315 9.48774 28.5201 9.53258 28.5087 9.57742C28.4892 9.65462 28.4696 9.73181 28.4707 9.81698C28.4684 9.84673 28.4663 9.87655 28.4642 9.90643C28.4571 10.0085 28.4499 10.111 28.4358 10.2126C28.4293 10.2859 28.4335 10.3628 28.4378 10.4401C28.4412 10.503 28.4446 10.5662 28.4424 10.6282C28.4424 10.6456 28.4425 10.663 28.4426 10.6805C28.4429 10.7329 28.4432 10.7856 28.4407 10.8393C28.443 10.8889 28.451 10.9394 28.459 10.9902C28.4625 11.0124 28.466 11.0347 28.469 11.057C28.4768 11.1343 28.4842 11.212 28.4916 11.29C28.4983 11.3612 28.5051 11.4327 28.5122 11.5042C28.5488 11.6554 28.582 11.81 28.6119 11.9662C28.6419 12.1756 28.6999 12.365 28.7588 12.5571C28.7915 12.6639 28.8245 12.7715 28.853 12.8838C28.8696 12.9859 28.9303 13.1168 28.9909 13.2475C29.0151 13.2998 29.0394 13.352 29.0608 13.4024L29.3068 13.9459L29.3367 14.0141L29.34 14.0191L29.3433 14.0257L29.4115 14.1421L29.5511 14.3715L29.832 14.8369C29.9586 15.0019 30.0846 15.167 30.2104 15.3317C30.3077 15.459 30.4048 15.5861 30.5019 15.7129L31.2599 16.5308C31.5325 16.7851 31.8034 17.0377 32.0727 17.2871C32.1668 17.3651 32.2604 17.4431 32.3537 17.5207C32.5425 17.6776 32.7297 17.8333 32.9155 17.9868C33.2064 18.2029 33.4939 18.4157 33.7748 18.6235C34.0657 18.8213 34.3516 19.0141 34.6292 19.2003C34.9151 19.3782 35.1927 19.551 35.462 19.7189C35.6348 19.8222 35.8063 19.9194 35.9739 20.0145C36.0707 20.0694 36.1662 20.1235 36.2599 20.1777C36.7768 20.4636 37.2605 20.7129 37.6944 20.9224C38.1299 21.1335 38.5122 21.3097 38.8297 21.451ZM29.32 13.9845C29.3196 13.984 29.3191 13.9834 29.3183 13.9825L29.3266 13.9975L29.3299 14.0008C29.3266 13.9958 29.3216 13.9875 29.3199 13.9842C29.3199 13.9843 29.32 13.9844 29.32 13.9845Z" fill="#4AF6CD"/>
<path d="M31.4876 0.852365C30.7064 1.0136 30.2127 1.21806 30.2127 1.21806C30.1811 1.23136 30.1562 1.26294 30.1562 1.29951C30.1545 1.34771 30.1944 1.38761 30.2426 1.38761C30.2443 1.38761 30.7595 1.39093 31.5192 1.47903C31.8982 1.5156 32.3337 1.59206 32.7925 1.67185C33.2496 1.77491 33.7333 1.86799 34.1971 2.01427C34.3134 2.05416 34.4298 2.08574 34.5428 2.12896C34.6542 2.17883 34.7639 2.22703 34.8736 2.27524C35.093 2.36999 35.2991 2.47471 35.5069 2.54618C35.718 2.60935 35.9225 2.6642 36.1236 2.70077C36.3297 2.73401 36.5259 2.7656 36.7071 2.79385C36.8916 2.82211 37.0711 2.83209 37.234 2.8404C37.3919 2.85702 37.5382 2.867 37.6628 2.867C37.9138 2.87198 38.0801 2.8537 38.0801 2.8537L38.0867 2.85204C38.095 2.85037 38.1017 2.84871 38.11 2.84705C38.1665 2.8271 38.1948 2.76394 38.1748 2.70742C38.1748 2.70742 38.12 2.55616 37.9853 2.33342C37.9188 2.21872 37.8291 2.09073 37.7177 1.94778C37.6047 1.80981 37.4634 1.67351 37.3021 1.53222C37.2223 1.45908 37.1343 1.38927 37.0428 1.31946C36.9464 1.25962 36.85 1.19147 36.7436 1.13329C36.5375 1.0053 36.3065 0.890601 36.0538 0.822448C35.8028 0.745984 35.5335 0.706091 35.2576 0.694457C34.9833 0.669524 34.7074 0.657888 34.4331 0.644589C34.1605 0.619655 33.8879 0.622979 33.622 0.617993C33.356 0.611344 33.0934 0.63794 32.8424 0.651238C32.5897 0.681158 32.3504 0.694455 32.1226 0.736012C31.8966 0.774243 31.6838 0.810812 31.4877 0.85237L31.4876 0.852365Z" fill="#4AF6CD"/>
<path d="M37.1093 7.00251C37.2756 7.07731 37.4052 7.16042 37.5349 7.22027C37.7726 7.35324 37.9388 7.43303 37.9388 7.43303L37.9488 7.43802C37.9621 7.44467 37.977 7.44799 37.9937 7.44799C38.0468 7.44633 38.0901 7.40145 38.0901 7.3466C38.0901 7.3466 38.0884 7.30171 38.0867 7.2186C38.0817 7.13549 38.0768 7.01083 38.0435 6.85956C38.0069 6.71162 37.9621 6.52379 37.8706 6.33097C37.7892 6.12817 37.6662 5.9204 37.5133 5.70594C37.4351 5.60123 37.347 5.49484 37.2556 5.38846C37.1575 5.29039 37.0595 5.18068 36.9481 5.08427C36.7287 4.88647 36.476 4.70362 36.1951 4.559C35.9142 4.41604 35.605 4.31132 35.2909 4.2332C34.9767 4.14843 34.6592 4.08194 34.3467 4.0088C33.7217 3.86419 33.0967 3.76279 32.5099 3.71625C31.9248 3.66139 31.3779 3.65142 30.9109 3.65641C29.9784 3.66804 29.365 3.76113 29.365 3.76113C29.3284 3.76611 29.2985 3.79437 29.2902 3.83094C29.2819 3.87914 29.3118 3.92569 29.36 3.934C29.36 3.934 29.9601 4.04869 30.8361 4.27974C31.2732 4.39278 31.7769 4.54071 32.3055 4.71523C32.5698 4.80001 32.8374 4.90307 33.11 4.99948C33.3793 5.09921 33.6502 5.20892 33.9129 5.32694C34.1755 5.44662 34.4298 5.58292 34.6642 5.73252C34.9019 5.88046 35.1229 6.03172 35.3457 6.15473C35.5685 6.27607 35.7829 6.38246 35.9973 6.47554C36.2084 6.57361 36.4079 6.6667 36.5924 6.75313C36.7818 6.84289 36.9564 6.92767 37.1093 7.00247L37.1093 7.00251Z" fill="#4AF6CD"/>
<path d="M36.1817 9.08891C36.1185 8.95759 36.0287 8.83458 35.929 8.70327C35.8309 8.57029 35.7046 8.46391 35.565 8.36251C35.4254 8.26278 35.2558 8.20294 35.0879 8.13811C34.9184 8.0816 34.7472 8.02674 34.5826 7.96524C34.2501 7.85387 33.9194 7.74749 33.6019 7.69097C33.2877 7.62116 32.9885 7.58958 32.7358 7.56298C32.2305 7.51145 31.8881 7.53306 31.8881 7.53306C31.8631 7.53472 31.8399 7.54968 31.8266 7.57462C31.81 7.61119 31.8249 7.6544 31.8615 7.67102C31.8615 7.67102 32.1624 7.81231 32.5946 8.03838C32.809 8.15639 33.0533 8.29769 33.3093 8.45228C33.434 8.53206 33.5636 8.61351 33.6933 8.69496C33.8246 8.77475 33.9493 8.86783 34.0756 8.95427C34.197 9.04736 34.3133 9.14875 34.4197 9.25347C34.5194 9.36484 34.6275 9.46125 34.7305 9.54436C34.8319 9.62747 34.9549 9.68233 35.0646 9.73884C35.1727 9.79702 35.2907 9.83857 35.3987 9.88179C35.5018 9.92668 35.6082 9.96325 35.7112 9.99316C35.8143 10.0231 35.8958 10.058 35.9772 10.0796C36.1368 10.1278 36.2531 10.1478 36.2531 10.1478L36.2581 10.1494C36.3097 10.1594 36.3595 10.1245 36.3695 10.073C36.3695 10.073 36.3894 9.96324 36.3778 9.78206C36.3712 9.6923 36.3612 9.57761 36.3279 9.46291C36.293 9.34822 36.2465 9.22189 36.1817 9.08891H36.1817Z" fill="#4AF6CD"/>
</svg>
